<svg xmlns="http://www.w3.org/2000/svg" xmlns:xlink="http://www.w3.org/1999/xlink" viewBox="0 0 149.29 159.29"><defs><style>.cls-1{fill:#7d6991;}.cls-2{isolation:isolate;}.cls-3{clip-path:url(#clip-path);}.cls-4{fill:#141720;}.cls-5,.cls-9{fill:#ecc19c;}.cls-6{fill:#eb6d4a;}.cls-7{fill:#e7ecf2;}.cls-8{fill:#8dc63f;}.cls-9{opacity:0.5;mix-blend-mode:multiply;}</style><clipPath id="clip-path"><circle class="cls-1" cx="74.64" cy="74.64" r="74.64"/></clipPath></defs><title>Recurso 2</title><g class="cls-2"><g id="Capa_2" data-name="Capa 2"><g id="OBJECTS"><circle class="cls-1" cx="74.64" cy="74.64" r="74.64"/><g class="cls-3"><path class="cls-4" d="M43.94,122.09c0,3.17-1.26,5.88-3,7a3.35,3.35,0,0,1-3.77,0c-1.78-1.14-3-3.85-3-7a10.47,10.47,0,0,1,.92-4.4c.88-1.93,2.34-3.19,4-3.19s3.11,1.26,4,3.19A10.47,10.47,0,0,1,43.94,122.09Z"/><path class="cls-4" d="M43.94,113.28a10.52,10.52,0,0,1-.93,4.41c-.88,1.92-2.34,3.18-4,3.18s-3.11-1.26-4-3.18a11.05,11.05,0,0,1,0-8.83c.89-1.92,2.35-3.18,4-3.18s3.11,1.26,4,3.18A10.53,10.53,0,0,1,43.94,113.28Z"/><path class="cls-4" d="M43.94,104.45a10.48,10.48,0,0,1-.93,4.41c-.88,1.93-2.34,3.18-4,3.18s-3.11-1.25-4-3.18A11,11,0,0,1,35,100c.89-1.92,2.35-3.18,4-3.18s3.11,1.26,4,3.18A10.48,10.48,0,0,1,43.94,104.45Z"/><path class="cls-4" d="M43.94,95.53v.1A10.48,10.48,0,0,1,43,100c-.88,1.93-2.34,3.18-4,3.18S35.91,102,35,100a11,11,0,0,1,0-8.82,5.56,5.56,0,0,1,2.7-2.92A3.26,3.26,0,0,1,39,88c1.65,0,3.11,1.26,4,3.19A10.39,10.39,0,0,1,43.94,95.53Z"/><path class="cls-4" d="M43.94,86.81A10.48,10.48,0,0,1,43,91.22a6.69,6.69,0,0,1-1.35,2A3.78,3.78,0,0,1,39,94.4c-1.65,0-3.11-1.25-4-3.18a10.48,10.48,0,0,1-.92-4.41,10.87,10.87,0,0,1,.54-3.46A7.24,7.24,0,0,1,35,82.4c.89-1.93,2.35-3.18,4-3.18s3.11,1.25,4,3.18A10.48,10.48,0,0,1,43.94,86.81Z"/><ellipse class="cls-4" cx="39.01" cy="77.99" rx="4.92" ry="7.59"/><ellipse class="cls-4" cx="39.01" cy="69.16" rx="4.92" ry="7.59"/><ellipse class="cls-4" cx="39.01" cy="60.34" rx="4.92" ry="7.59"/><polygon class="cls-4" points="43.83 138.77 34.2 138.77 37.13 129.11 39.02 122.89 40.9 129.11 41.59 131.37 43.83 138.77"/><ellipse class="cls-4" cx="109.99" cy="122.09" rx="4.92" ry="7.59"/><ellipse class="cls-4" cx="109.99" cy="113.27" rx="4.92" ry="7.59"/><ellipse class="cls-4" cx="109.99" cy="104.45" rx="4.92" ry="7.59"/><ellipse class="cls-4" cx="109.99" cy="95.63" rx="4.92" ry="7.59"/><ellipse class="cls-4" cx="109.99" cy="86.81" rx="4.92" ry="7.59"/><ellipse class="cls-4" cx="109.99" cy="77.99" rx="4.92" ry="7.59"/><ellipse class="cls-4" cx="109.99" cy="69.16" rx="4.92" ry="7.59"/><ellipse class="cls-4" cx="109.99" cy="60.34" rx="4.92" ry="7.59"/><polygon class="cls-4" points="109.99 122.88 105.17 138.77 109.88 138.77 110.1 138.77 114.8 138.77 109.99 122.88"/><path class="cls-4" d="M120.89,58.4a52.38,52.38,0,0,1-6.44,25.33,49.25,49.25,0,0,1-3,4.71,47.13,47.13,0,0,1-4,5c-.78.84-1.59,1.66-2.42,2.44A44.84,44.84,0,0,1,83,107.29a42.87,42.87,0,0,1-4.85.67h0c-1.14.09-2.3.14-3.46.14h0c-1.15,0-2.3,0-3.43-.14h0A44,44,0,0,1,43.91,95.57c-.78-.74-1.54-1.52-2.27-2.32a50.71,50.71,0,0,1-7-9.86,52.34,52.34,0,0,1-6.26-25,53.2,53.2,0,0,1,2-14.39c.17-.62.36-1.24.55-1.84A51.71,51.71,0,0,1,33.3,36c.25-.54.52-1.09.8-1.63a49.85,49.85,0,0,1,4.31-6.92l.42-.57c.65-.85,1.34-1.69,2-2.49a47.88,47.88,0,0,1,3.58-3.68A44.6,44.6,0,0,1,67,9.4a42.79,42.79,0,0,1,7.63-.69h0a44.21,44.21,0,0,1,30.17,12,49.82,49.82,0,0,1,3.58,3.68c.7.8,1.38,1.64,2,2.49.14.2.28.38.42.57a49.85,49.85,0,0,1,4.31,6.92c.27.54.54,1.09.8,1.63a51.66,51.66,0,0,1,2.41,6.13c.2.6.39,1.22.56,1.84A53.2,53.2,0,0,1,120.89,58.4Z"/><path class="cls-5" d="M117.92,159.29H31.37a43.1,43.1,0,0,1,2.31-14c.27-.79.56-1.57.88-2.35h0c.29-.71.61-1.42.94-2.12a.77.77,0,0,0,.07-.16c.31-.65.63-1.28,1-1.9a39.7,39.7,0,0,1,2.16-3.59c.67-1,1.38-2,2.13-2.91.25-.3.49-.61.75-.9s.56-.66.85-1,.56-.61.84-.91.57-.59.87-.88l.08-.08a42.91,42.91,0,0,1,4.59-4c.83-.62,1.66-1.19,2.52-1.74a3.87,3.87,0,0,1,.34-.21c.75-.48,1.52-.93,2.3-1.35h0a8,8,0,0,0,.84-.49l.19-.1.68-.43.22-.14c.2-.13.39-.26.59-.41s.49-.34.73-.52h0s0,0,0,0h0l0,0,.66-.49h0A27,27,0,0,0,61.75,115a27.29,27.29,0,0,0,4.64-7.71c.12-.28.23-.55.32-.83a24.22,24.22,0,0,0,.77-2.55c.16-.62.29-1.24.41-1.86a27.54,27.54,0,0,0,.42-4.83l6.31,0h1.13l5.35,0a27.4,27.4,0,0,0,.41,4.74c.11.64.25,1.27.41,1.89.2.85.46,1.69.74,2.51.1.28.21.57.33.85a26,26,0,0,0,1.89,3.9,27.77,27.77,0,0,0,6.48,7.47c.19.16.38.32.58.46l.18.14.09.06s0,0,0,0,0,0,0,0h0l.06,0,0,0a1.56,1.56,0,0,0,.2.16l.58.4.19.13.44.29.45.28.51.3a4.21,4.21,0,0,0,.51.29l.14.08.27.14.16.1c.23.12.44.25.65.37s.71.42,1.05.64.67.41,1,.65c.67.43,1.33.9,2,1.39h0c.82.61,1.62,1.27,2.4,1.93s1.44,1.29,2.12,2l.14.13c.8.79,1.57,1.62,2.29,2.47a42,42,0,0,1,3.09,4.05c.78,1.16,1.5,2.36,2.16,3.59.37.66.71,1.34,1,2A43,43,0,0,1,117.92,159.29Z"/><path class="cls-6" d="M117.92,159.29H31.37a43.1,43.1,0,0,1,2.31-14c.27-.79.56-1.57.88-2.35h0c.29-.71.61-1.42.94-2.12a.77.77,0,0,0,.07-.16c.31-.65.63-1.28,1-1.9a39.7,39.7,0,0,1,2.16-3.59c.67-1,1.38-2,2.13-2.91.25-.3.49-.61.75-.9s.56-.66.85-1,.56-.61.84-.91.57-.59.87-.88l.08-.08a42.91,42.91,0,0,1,4.59-4c.83-.62,1.66-1.19,2.52-1.74a3.87,3.87,0,0,1,.34-.21c.75-.48,1.52-.93,2.3-1.35h0s0,0,0,0h0l.84-.49.19-.1.68-.43c.22-.15.44-.31.66-.45l.27-.2.61-.43s0,0,0,0h0l0,0c.22-.16.43-.34.64-.51h0v0c.47.47.94.93,1.45,1.36.24.22.5.42.75.62,0,0,0,0,0,0l.7.55a.91.91,0,0,0,.16.11l.73.51c.56.36,1.13.71,1.71,1,.29.16.59.31.89.46s.62.29.93.42a.23.23,0,0,0,.12.06c.35.16.7.3,1.06.43l1.09.38q.42.14.84.24c.26.08.51.14.76.2l.18,0a23.63,23.63,0,0,0,2.54.44c.29,0,.59.07.89.09.6,0,1.21.07,1.82.07h.87l.26,0c.39,0,.76,0,1.14-.07s.65-.07,1-.12c0,0,0,0,0,0H78l.1,0s0,0,0,0l.37-.06s0,0,0,0a1.35,1.35,0,0,0,.35-.06h.08l.12,0,.08,0s0,0,0,0l.28,0,.26-.05.51-.13,1.07-.28c.35-.11.7-.21,1-.34l.7-.25.88-.35.92-.42.26-.13a6,6,0,0,0,.56-.3.16.16,0,0,0,.09-.05c.2-.1.4-.22.6-.33l.42-.25.22-.14.08,0a.05.05,0,0,0,0,0c.27-.17.53-.34.79-.53a4.54,4.54,0,0,0,.5-.36l.41-.3h0a.71.71,0,0,0,.14-.1l.26-.2.09-.08.5-.41c.55-.46,1.07-1,1.57-1.45h0c.27.23.56.45.84.67,0,0,0,0,0,0s0,0,0,0h0l.06,0,0,0c.25.19.51.38.78.56l.19.13.89.57,1,.59a.41.41,0,0,1,.15.07l.26.15.16.1c.23.12.44.25.65.37s.71.42,1.05.64.67.41,1,.65c.67.43,1.33.9,2,1.39h0c.82.62,1.63,1.27,2.4,1.94s1.44,1.29,2.12,2l.14.13c.8.79,1.57,1.62,2.29,2.47a42,42,0,0,1,3.09,4.05c.78,1.16,1.5,2.36,2.16,3.59.37.66.71,1.34,1,2A43,43,0,0,1,117.92,159.29Z"/><path class="cls-7" d="M74.72,125.64l0,0v0l0,.06,0,0a11.8,11.8,0,0,1-18.51,1.58l-4.43-4.75c.75-.48,1.52-.93,2.3-1.35h0l.84-.49.19-.1.68-.43.22-.14.44-.31.15-.1.73-.52h0l0,0,0,0c.22-.16.43-.34.64-.51l0,0A18.53,18.53,0,0,0,59.43,120a8.49,8.49,0,0,0,.75.62s0,0,0,0a7.36,7.36,0,0,0,.7.55.91.91,0,0,0,.16.11c.24.18.48.35.73.51a18.45,18.45,0,0,0,1.71,1c.29.16.59.31.89.46s.62.29.93.42a.23.23,0,0,0,.12.06c.35.16.7.3,1.06.43l1.09.38q.42.14.84.24c.26.08.51.14.76.2l.18,0a19.54,19.54,0,0,0,2.54.44c.29,0,.59.07.89.09a18,18,0,0,0,1.81.08Z"/><path class="cls-7" d="M97.7,122.69l-4.37,4.68a11.8,11.8,0,0,1-18.57-1.67v0l0,0a23.3,23.3,0,0,0,16.63-7h0q.87.72,1.8,1.35l.19.13.9.57c.33.2.67.4,1,.58l.14.08c.72.4,1.43.81,2.12,1.25Z"/><path class="cls-5" d="M107.86,44.21V66.8c0,.33,0,.64,0,1s0,.58,0,.87,0,.53,0,.79a5.46,5.46,0,0,1,0,.56c0,.11,0,.22,0,.33a6.18,6.18,0,0,1-.07.62c0,.4-.08.78-.13,1.17,0,.1,0,.2,0,.29l-.09.59v0a.43.43,0,0,0,0,.11c0,.25-.09.49-.13.73-.07.4-.15.79-.23,1.17l0,0a.51.51,0,0,1,0,.17.09.09,0,0,0,0,0l-.12.51a.43.43,0,0,0,0,.11,2.68,2.68,0,0,1-.07.27,3.48,3.48,0,0,1-.1.44,2.33,2.33,0,0,1-.07.25l-.06.22c-.17.66-.36,1.32-.57,2-.1.31-.19.61-.3.92l0,.1-.28.79,0,0-.09.25c-.1.27-.2.53-.31.79s-.25.63-.38.94-.24.55-.36.83a.84.84,0,0,1-.06.14c-.13.29-.26.58-.4.87s-.29.6-.44.9l0,0c-.28.57-.59,1.16-.9,1.72l-.44.79a49.65,49.65,0,0,1-4.17,6.07c-.21.27-.42.53-.64.78s-.61.73-.92,1.08-.53.59-.81.88l0,0c-.78.84-1.58,1.64-2.4,2.39-.16.16-.33.31-.51.46s-.55.5-.84.74l-.67.57c-.59.48-1.18,1-1.77,1.38q-.37.28-.75.54c-.41.29-.83.57-1.24.84l-.71.44a.6.6,0,0,1-.11.06c-.79.49-1.6.94-2.39,1.33-.2.11-.41.21-.61.3l-.64.3-.81.34a2,2,0,0,1-.31.12c-.32.13-.65.26-1,.36s-.8.27-1.2.39l-.84.22h-.06l-.83.18-.22,0-.69.11a8.14,8.14,0,0,1-1,.1,1.84,1.84,0,0,1-.33,0c-.26,0-.52,0-.77,0h0c-.25,0-.51,0-.76,0a1.36,1.36,0,0,1-.29,0,5.83,5.83,0,0,1-.71-.06l-.16,0-.91-.14a8,8,0,0,1-.79-.17,24,24,0,0,1-4.29-1.44,31.48,31.48,0,0,1-3.74-2l-.21-.13c-.56-.34-1.12-.71-1.67-1.09l-.93-.67q-1.45-1.06-2.88-2.31l-.78-.72-.78-.72c-.6-.58-1.19-1.18-1.75-1.8l-.11-.11-.71-.78c-.65-.74-1.28-1.5-1.89-2.29-.23-.28-.45-.58-.67-.87-.83-1.09-1.61-2.23-2.35-3.42l-.58-1L47,87.42c-.32-.57-.62-1.15-.92-1.73-.47-.93-.9-1.87-1.3-2.84-.1-.22-.2-.45-.28-.68s-.25-.6-.35-.89S44,81,44,80.86c-.11-.29-.22-.58-.32-.88l-.42-1.31c-.13-.42-.25-.85-.37-1.28s-.25-.92-.36-1.4a.7.7,0,0,0,0-.14s0,0,0,0c-.15-.64-.28-1.29-.41-2,0-.24-.09-.48-.12-.74-.11-.63-.19-1.29-.27-1.94,0-.28-.06-.57-.09-.86s-.05-.59-.07-.89c0-.55-.07-1.1-.08-1.66,0-.33,0-.64,0-1V44.21A33.24,33.24,0,0,1,72.82,11.05h.09l.69,0,1,0h0l1,0h.08c.24,0,.49,0,.73,0h0l.34,0,.72.06.36,0,.24,0a33.63,33.63,0,0,1,3.81.63,32.93,32.93,0,0,1,6.22,2.08c1,.44,1.93.92,2.86,1.45s1.61,1,2.37,1.49,1.5,1.08,2.21,1.67c.28.22.55.45.82.68h0a32.33,32.33,0,0,1,4.3,4.53,33,33,0,0,1,7.06,20.19A2.81,2.81,0,0,1,107.86,44.21Z"/><path class="cls-4" d="M77.66,18.87A36.22,36.22,0,0,1,41.43,55.1V41.89a33.07,33.07,0,0,1,9.28-23Z"/><path class="cls-4" d="M107.86,41.89V59.15A49.8,49.8,0,0,1,71.58,39c-4.25-5.79-8-20.53-11.93-14-3.3,5.51-10-5.76-10-6.12L67,9.36,91.09,13c.81.47,1.61,1,2.37,1.5s1.5,1.07,2.21,1.66l.82.69h0a32.33,32.33,0,0,1,4.3,4.53,33,33,0,0,1,7.06,20.19C107.86,41.69,107.86,41.79,107.86,41.89Z"/><path class="cls-4" d="M67.68,16,51.37,22.48,39.54,38V55.1H42.8l21-17.47L72,30.18h4.69L99.09,51.94s11.42-.33,11.42-.83-3.67-20.93-3.67-20.93L94,20.15,76.05,14.82,68.91,16Z"/><path class="cls-8" d="M116,36H33.32c.26-.54.53-1.09.8-1.63a51.44,51.44,0,0,1,4.31-6.92l.42-.57c.66-.85,1.34-1.69,2-2.49a2.35,2.35,0,0,1,.53,0h66.45a2.35,2.35,0,0,1,.53,0c.7.8,1.39,1.64,2,2.49l.42.57a50.45,50.45,0,0,1,4.31,6.92C115.45,34.91,115.72,35.46,116,36Z"/><circle class="cls-4" cx="59.65" cy="67.44" r="10.02"/><circle class="cls-4" cx="89.35" cy="67.44" r="10.02"/><path class="cls-4" d="M81.11,67.44H79.3a4.82,4.82,0,0,0-9.63,0h-1.8a6.62,6.62,0,0,1,13.24,0Z"/><path class="cls-7" d="M74.64,35a4.78,4.78,0,1,1,4.78-4.78A4.78,4.78,0,0,1,74.64,35Zm0-8.57a3.8,3.8,0,1,0,3.8,3.79A3.79,3.79,0,0,0,74.64,26.42Z"/><rect class="cls-7" x="74.16" y="25.93" width="0.98" height="8.57"/><rect class="cls-7" x="75.67" y="29.59" width="0.98" height="4.28" transform="translate(-0.13 63.14) rotate(-45)"/><rect class="cls-7" x="70.99" y="31.24" width="4.28" height="0.98" transform="translate(-1.03 60.96) rotate(-44.97)"/><path class="cls-9" d="M67,9.36A44.64,44.64,0,0,0,44.47,20.71a49.82,49.82,0,0,0-3.58,3.68c-.7.8-1.38,1.64-2,2.49l-.42.57a51.44,51.44,0,0,0-4.31,6.92c-.27.54-.54,1.09-.8,1.63a51.66,51.66,0,0,0-2.41,6.13c-.2.6-.39,1.22-.56,1.84a53.2,53.2,0,0,0-2,14.39,52.34,52.34,0,0,0,6.26,25,10.87,10.87,0,0,0-.54,3.46A10.48,10.48,0,0,0,35,91.22,11,11,0,0,0,35,100a11,11,0,0,0,0,8.82,11.05,11.05,0,0,0,0,8.83,10.47,10.47,0,0,0-.92,4.4c0,3.17,1.25,5.88,3,7l-2.93,9.66h2.35c-.35.62-.67,1.25-1,1.9a.77.77,0,0,1-.07.16c-.33.7-.65,1.41-.94,2.12h0c-.32.78-.61,1.56-.88,2.35a43.1,43.1,0,0,0-2.31,14H74.62V8.68A42.9,42.9,0,0,0,67,9.36Zm-24.54,121c-.29.32-.57.65-.85,1l-.69-2.26c1.78-1.14,3-3.85,3-7a10.47,10.47,0,0,0-.93-4.4,10.94,10.94,0,0,0,0-8.83A10.92,10.92,0,0,0,43,100a10.48,10.48,0,0,0,.93-4.41v-.1a44.78,44.78,0,0,0,22.45,11.74A27.29,27.29,0,0,1,61.75,115,27,27,0,0,1,58,118.61v0h0c-.21.17-.42.35-.64.51l0,0h0s0,0,0,0l-.61.43-.27.2c-.22.14-.44.3-.66.45l-.68.43-.19.1-.84.49h0s0,0,0,0h0c-.78.42-1.55.87-2.3,1.35a3.87,3.87,0,0,0-.34.21c-.86.55-1.69,1.12-2.52,1.74a42.91,42.91,0,0,0-4.59,4l-.08.08c-.3.29-.58.58-.87.88S42.71,130.08,42.44,130.39Z"/></g><path class="cls-4" d="M107.54,59.12l.4,0s2.18-14.63,2.06-14.59-4.84.17-4.84.58S107.54,59.12,107.54,59.12Z"/></g></g></g></svg>