<svg xmlns="http://www.w3.org/2000/svg" xmlns:xlink="http://www.w3.org/1999/xlink" viewBox="0 0 149.29 162.22"><defs><style>.cls-1{fill:#f3e85c;}.cls-2{isolation:isolate;}.cls-3{clip-path:url(#clip-path);}.cls-10,.cls-4{fill:#ecc19c;}.cls-5{fill:#168ef7;}.cls-6,.cls-7{fill:#e7ecf2;}.cls-10,.cls-7{mix-blend-mode:multiply;}.cls-8{fill:#494846;}.cls-9{fill:#eb6d4a;}.cls-10{opacity:0.5;}</style><clipPath id="clip-path"><circle class="cls-1" cx="74.64" cy="74.64" r="74.64"/></clipPath></defs><title>Recurso 1</title><g class="cls-2"><g id="Capa_2" data-name="Capa 2"><g id="OBJECTS"><circle class="cls-1" cx="74.64" cy="74.64" r="74.64"/><g class="cls-3"><path class="cls-4" d="M119.57,162.22H33a43,43,0,0,1,2.3-14c.27-.8.57-1.58.89-2.35h0c.28-.72.6-1.43.93-2.12l.08-.17a43.16,43.16,0,0,1,3.13-5.49c.67-1,1.39-2,2.14-2.91.52-.64,1-1.27,1.6-1.87.27-.31.55-.62.84-.92l.86-.88h0l0,0,0,0h0a42.15,42.15,0,0,1,4.6-4c.82-.61,1.65-1.18,2.52-1.74l.33-.2.37-.23.37-.22c.24-.14.48-.29.74-.43l0,0,.4-.22.37-.22h0L56,124l.19-.11.17-.1.15-.1a.93.93,0,0,0,.19-.11c.23-.13.46-.28.69-.43l.16-.1.5-.34.27-.19.6-.44h0s0,0,0,0l0,0L59,122l.59-.44h0a28,28,0,0,0,3.76-3.63,28.1,28.1,0,0,0,5-8.54c.29-.84.55-1.68.76-2.56,0,0,0,0,0,0,.16-.59.29-1.21.4-1.82a27.38,27.38,0,0,0,.42-4.83l6.31,0H77.4l5.36,0a27.48,27.48,0,0,0,.4,4.74,17.8,17.8,0,0,0,.39,1.79s0,.06,0,.09c.21.86.46,1.7.74,2.51a26.4,26.4,0,0,0,2.22,4.75A26.07,26.07,0,0,0,89,117.58a26.88,26.88,0,0,0,4,4h0a4.1,4.1,0,0,0,.41.34l.38.28a.1.1,0,0,0,.05,0h0s0,0,0,0,.07,0,.09.06,0,0,.05,0a.17.17,0,0,1,.06.06c.09.06.18.13.27.18s.3.22.45.31L95,123l.27.18a5,5,0,0,0,.49.31l.14.08.29.18s0,0,0,0a0,0,0,0,0,0,0l.07,0c.2.12.41.25.63.36l.14.07.17.11.09,0,.17.1.64.37c.35.2.71.41,1,.63l.5.32c.17.11.34.21.5.33.68.44,1.34.91,2,1.4h0c.59.45,1.19.91,1.76,1.39l.64.54c.74.63,1.44,1.28,2.13,2a1.59,1.59,0,0,1,.13.13h0a42.5,42.5,0,0,1,5.38,6.51,43,43,0,0,1,7.34,24.11Z"/><path class="cls-5" d="M119.57,162.22H33a43,43,0,0,1,2.3-14c.27-.8.57-1.58.89-2.35h0c.28-.72.6-1.43.93-2.12l.08-.17a43.16,43.16,0,0,1,3.13-5.49c.67-1,1.39-2,2.14-2.91.52-.64,1-1.27,1.6-1.87.27-.31.55-.62.84-.92l.86-.88,0,0,0,0a42.15,42.15,0,0,1,4.6-4c.82-.61,1.65-1.18,2.52-1.74l.33-.2.37-.24.37-.22c.24-.14.48-.29.74-.43l0,0,.4-.22.37-.22h0L56,124l.19-.11.17-.1.15-.09a1.86,1.86,0,0,0,.19-.11l.69-.43.16-.11.5-.34.27-.19.6-.44h0l0,0L59,122l.57-.45h0v0h0c.46.47.94.93,1.44,1.36l.75.62h0l.7.54.16.12.74.5c.55.37,1.12.71,1.7,1l.89.47.93.42a.34.34,0,0,0,.12.06c.35.15.7.3,1.06.43s.73.26,1.1.37.55.18.84.25.5.14.76.19a.48.48,0,0,0,.18,0h0a24.67,24.67,0,0,0,2.48.44l.89.09c.56,0,1.11.06,1.67.07h1a0,0,0,0,0,0,0h.26c.39,0,.76,0,1.14-.08l1-.11h.13l.12,0,.74-.13h.09a.2.2,0,0,0,.11,0l.1,0,.28-.06.4-.08h0l.33-.08c.36-.09.72-.18,1.07-.29s.7-.21,1-.33c.54-.18,1.06-.39,1.58-.61.34-.14.67-.29,1-.46s.56-.28.83-.43l.6-.34a6,6,0,0,0,.64-.38l.17-.1.53-.35a2.61,2.61,0,0,0,.27-.19l.16-.1c.24-.17.46-.34.69-.52,0,0,0,0,0,0a.83.83,0,0,0,.15-.11l.33-.27.51-.41A21.26,21.26,0,0,0,93,121.56h0l.41.34.38.28a.1.1,0,0,0,.05,0s0,0,0,0l.09,0,.05,0,.06,0c.09.06.18.13.27.18s.3.22.45.32L95,123l.27.17a5,5,0,0,0,.49.31l.14.09a2.48,2.48,0,0,0,.31.18,0,0,0,0,0,0,0l.07,0c.2.12.41.25.63.36l.14.07.17.11.09,0a1,1,0,0,1,.17.1l.23.14h0s0,0,.06,0l.34.19c.35.21.71.42,1,.64.18.1.34.2.5.31l.5.34c.68.43,1.34.91,2,1.4h0c.59.45,1.19.91,1.76,1.39l.64.55c.74.63,1.44,1.28,2.13,2l.13.13a42.5,42.5,0,0,1,5.38,6.51,43,43,0,0,1,7.34,24.11Z"/><path class="cls-6" d="M81.47,128l-.39.08-.28.06-.1,0a.21.21,0,0,1-.12,0H80.5l-.74.13-.12,0h-.13l-1,.11c-.38,0-.75.06-1.14.08h-.26a0,0,0,0,1,0,0h-1c-.56,0-1.12,0-1.67-.07l-.89-.09a24.67,24.67,0,0,1-2.48-.44l1.5,5.71,3.71,14.06v0h0v0L80,133.67l1.5-5.68Z"/><path class="cls-7" d="M81.47,128l-.39.08-.28.06-.1,0a.21.21,0,0,1-.12,0H80.5l-.74.13-.12,0h-.13l-1,.11c-.38,0-.75.06-1.14.08h-.26a0,0,0,0,1,0,0h-1c-.56,0-1.12,0-1.67-.07l-.89-.09a24.67,24.67,0,0,1-2.48-.44l1.5,5.71,3.71,14.06v0h0v0L80,133.67l1.5-5.68Z"/><path class="cls-6" d="M97.8,124.68c-4,3.69-14.2,13.25-14.31,13.43A43.86,43.86,0,0,1,80,133.67c-1.56-2.12-3.19-4.35-3.71-5.08h.79a0,0,0,0,0,0,0h.26c.39,0,.76,0,1.14-.08l1-.11h.13l.12,0,.74-.13h.08a.21.21,0,0,0,.12,0l.1,0,.28-.06.39-.08h0l.34-.08c.36-.09.72-.18,1.07-.29s.7-.21,1-.33c.54-.18,1.06-.39,1.58-.61.34-.14.67-.29,1-.46s.56-.28.83-.43l.6-.34a6,6,0,0,0,.64-.38l.17-.1.53-.35.27-.19.16-.1.69-.52s0,0,0,0l.15-.11.33-.27.5-.41A19.53,19.53,0,0,0,93,121.56l0,0h0c.27.23.55.44.84.66,0,0,0,0,0,0l.09,0,.05,0c.25.18.51.37.78.55L95,123c.29.2.59.38.9.57s.67.4,1,.59l.14.07.26.16a1,1,0,0,1,.17.1l.23.13h0Z"/><path class="cls-6" d="M76.32,128.57l0,0h0a0,0,0,0,1,0,0c-.53.73-2.15,3-3.71,5.07a46.37,46.37,0,0,1-3.46,4.43c-.12-.18-10.36-9.74-14.31-13.44l0,0,.4-.22.37-.22h0L56,124l.19-.11.17-.1.15-.09a1.86,1.86,0,0,0,.19-.11l.69-.43.16-.11.5-.34.27-.19.6-.44h0l0,0L59,122l.57-.45h0v0h0c.46.47.94.93,1.44,1.36l.75.62h0l.7.54.16.12.74.5c.55.37,1.12.71,1.7,1l.89.47.93.42a.34.34,0,0,0,.12.06c.35.15.7.3,1.06.43s.73.26,1.1.37.55.18.84.25.5.14.76.19a.48.48,0,0,0,.18,0h0a24.67,24.67,0,0,0,2.48.44l.89.09c.56,0,1.11.06,1.67.07Z"/><path class="cls-4" d="M109.5,41.89V66.81c0,.32,0,.64,0,1s0,.58,0,.87,0,.52,0,.78,0,.38,0,.57l0,.33c0,.2,0,.42-.07.62,0,.39-.08.78-.14,1.17,0,.09,0,.19,0,.29s-.06.39-.09.59v0a.49.49,0,0,0,0,.12c0,.24-.09.49-.13.73s-.15.78-.23,1.17c0,0,0,0,0,0l0,.17s0,0,0,0c0,.17-.07.34-.11.5l0,.12a1.31,1.31,0,0,1-.06.27c0,.14-.07.29-.1.44a2.33,2.33,0,0,1-.07.25l-.06.21c-.17.67-.37,1.32-.57,2l-.3.92a1,1,0,0,0,0,.1,2.5,2.5,0,0,1-.09.25c-.06.18-.13.36-.18.54l0,0c0,.08-.07.16-.1.25-.1.26-.19.52-.3.78s-.25.63-.38.94l-.36.83-.06.14c-.14.3-.27.59-.41.88s-.28.6-.44.9c0,0,0,0,0,0-.29.58-.6,1.17-.91,1.73l-.44.78a46.14,46.14,0,0,1-4.17,6.07c-.2.27-.41.53-.63.79l-.93,1.07c-.26.3-.53.6-.8.88l0,0c-.52.55-1,1.1-1.58,1.61l-.81.78-.51.46c-.28.25-.55.5-.84.73s-.45.39-.68.58c-.58.48-1.17.94-1.77,1.37q-.36.28-.75.54c-.41.3-.82.57-1.24.84a7.42,7.42,0,0,1-.7.44l-.11.07c-.79.49-1.6.94-2.39,1.33l-.62.3c-.2.1-.41.2-.63.29s-.5.22-.75.32l-.06,0a2.08,2.08,0,0,1-.32.12q-.48.19-1,.36c-.4.15-.81.27-1.21.38s-.56.16-.84.22l0,0c-.28.06-.56.13-.84.18l-.22,0c-.23,0-.45.08-.68.1s-.66.09-1,.11a1.53,1.53,0,0,1-.3,0h0l-.76,0h0l-.75,0a1.53,1.53,0,0,1-.3,0l-.71-.06-.15,0-.92-.15c-.26,0-.52-.1-.79-.16a21.69,21.69,0,0,1-3.49-1.12l-.79-.32a30.73,30.73,0,0,1-3.74-2l-.22-.13c-.55-.34-1.11-.71-1.66-1.09l-.93-.67c-1-.71-1.93-1.49-2.88-2.32-.26-.24-.52-.47-.78-.72s-.53-.48-.78-.71l-.17-.18c-.55-.52-1.08-1.06-1.58-1.63l-.11-.1-.71-.79c-.65-.73-1.29-1.49-1.89-2.28-.24-.29-.46-.58-.68-.87-.82-1.1-1.61-2.24-2.34-3.42-.2-.32-.39-.65-.58-1s-.45-.78-.67-1.17c-.32-.57-.62-1.15-.91-1.74-.47-.92-.91-1.87-1.31-2.83-.09-.23-.19-.46-.27-.68s-.25-.6-.36-.89-.1-.28-.14-.42-.14-.38-.21-.56-.08-.21-.11-.32c-.15-.43-.29-.87-.42-1.31s-.26-.85-.37-1.29-.25-.92-.36-1.39l0-.15s0,0,0,0c-.16-.63-.29-1.29-.41-1.94,0-.24-.09-.49-.12-.74-.12-.64-.2-1.29-.27-1.94,0-.29-.07-.57-.09-.86s-.06-.6-.07-.9c0-.54-.07-1.1-.09-1.65,0-.33,0-.65,0-1V41.89A33.2,33.2,0,0,1,74.46,8.73h.09l.68,0,1,0h0l.8,0h.32l.74,0h0l.34,0,.73.06.36,0,.24,0a34,34,0,0,1,3.81.63,33.43,33.43,0,0,1,11.45,5c.77.52,1.5,1.08,2.21,1.67.28.22.55.45.82.68h0c.54.48,1.08,1,1.58,1.48a29,29,0,0,1,2.71,3.05,33,33,0,0,1,7.07,20.19A2.81,2.81,0,0,1,109.5,41.89Z"/><path class="cls-8" d="M125,68.41a53.91,53.91,0,0,1-27.46,35.53,53.88,53.88,0,0,0,6-10.69,54.45,54.45,0,0,0,2.78-8.61q.5-2.15.81-4.29A54.08,54.08,0,0,0,81.56,26.07c-.93-.55-1.88-1.09-2.85-1.59-.53-.28-1.07-.54-1.62-.8-.26-.14-.53-.27-.8-.39-.83.38-1.63.78-2.43,1.19-1,.5-1.92,1-2.85,1.59A54.05,54.05,0,0,0,45.43,80.31c.22,1.44.49,2.89.83,4.33A53.89,53.89,0,0,0,49,93.23a53.06,53.06,0,0,0,6,10.71A54,54,0,0,1,65.28,4.24l.59-.18a53.74,53.74,0,0,1,9-1h2.75a53.85,53.85,0,0,1,9,1c.19.06.39.11.58.18a53.33,53.33,0,0,1,25.39,15.91A54,54,0,0,1,125,68.41Z"/><path class="cls-8" d="M119.92,66.85A48.22,48.22,0,0,1,95.35,98.67l0,0a48.31,48.31,0,0,0,7.85-17.3c.31-1.28.54-2.56.73-3.84A48.24,48.24,0,0,0,92.59,38.67c-.14-.17-.3-.34-.45-.51l-.23-.27,0,0A47.77,47.77,0,0,0,81,28.93a45.14,45.14,0,0,0-4-2.15l-.72-.35a49.51,49.51,0,0,0-4.73,2.5A48.36,48.36,0,0,0,48.65,77.51c.19,1.3.44,2.59.74,3.88a48,48,0,0,0,7.86,17.3l-.06,0A47.51,47.51,0,0,1,49,93.23a48.35,48.35,0,0,1-5.35-69.61A47.78,47.78,0,0,1,66.43,9.37L67,9.21a48.82,48.82,0,0,1,8.11-.88h2.46a48.81,48.81,0,0,1,8.09.88l.53.16a47.86,47.86,0,0,1,22.75,14.25,48.64,48.64,0,0,1,10.63,19.64A47.94,47.94,0,0,1,119.92,66.85Z"/><path class="cls-9" d="M84.32,89.33a7.84,7.84,0,0,0-5.72-2.58,7.36,7.36,0,0,0-2.31.38A7.36,7.36,0,0,0,74,86.75a7.88,7.88,0,0,0-5.73,2.58c-.11.11-.22.23-.32.35.1.12.21.24.32.35a10.58,10.58,0,0,0,16.07,0c.11-.11.22-.23.32-.35C84.54,89.56,84.43,89.44,84.32,89.33Z"/><path class="cls-8" d="M92.59,38.67c-.14-.17-.3-.34-.45-.51l-.23-.27.23.25A5.72,5.72,0,0,1,92.59,38.67Z"/><path class="cls-8" d="M92.14,24.48V38.16l-.23-.27,0,0a9.14,9.14,0,0,0-13.35.51,3,3,0,0,1-4.45,0,9.15,9.15,0,0,0-13.64-.22V24.48Z"/><path class="cls-10" d="M76.29,3.07V162.22H33a43,43,0,0,1,2.3-14c.27-.8.57-1.58.89-2.35h0c.28-.72.6-1.43.93-2.12l.08-.17a43.16,43.16,0,0,1,3.13-5.49c.67-1,1.39-2,2.14-2.91.52-.64,1-1.27,1.6-1.87.27-.31.55-.62.84-.92l.86-.88h0l0,0,0,0h0a42.15,42.15,0,0,1,4.6-4c.82-.61,1.65-1.18,2.52-1.74l.33-.2.37-.23.37-.22c.24-.14.48-.29.74-.43l0,0,.4-.22.37-.22h0L56,124l.19-.11.17-.1.15-.1a.93.93,0,0,0,.19-.11c.23-.13.46-.28.69-.43l.16-.1.5-.34.27-.19.6-.44h0s0,0,0,0l0,0L59,122l.57-.45h0v0h0a28,28,0,0,0,3.76-3.63,28.1,28.1,0,0,0,5-8.54c.29-.84.55-1.68.76-2.56,0,0,0,0,0,0l-.79-.32a30.73,30.73,0,0,1-3.74-2l-.22-.13c-.55-.34-1.11-.71-1.66-1.09l-.93-.67c-1-.71-1.93-1.49-2.88-2.32-.26-.24-.52-.47-.78-.72s-.53-.48-.78-.71l-.17-.18A47.51,47.51,0,0,1,49,93.23a53.06,53.06,0,0,0,6,10.71A54,54,0,0,1,65.28,4.24l.59-.18a53.74,53.74,0,0,1,9-1Z"/></g></g></g></g></svg>