<svg xmlns="http://www.w3.org/2000/svg" xmlns:xlink="http://www.w3.org/1999/xlink" viewBox="0 0 149.29 168"><defs><style>.cls-1{fill:#eb6d4a;}.cls-2{isolation:isolate;}.cls-3{clip-path:url(#clip-path);}.cls-11,.cls-4{fill:#ecc19c;}.cls-5{fill:#c5d4e2;}.cls-6{fill:#1a1a1a;}.cls-7{fill:#415364;}.cls-8{fill:#e7ecf2;}.cls-9{fill:#543e36;}.cls-10{fill:#141720;}.cls-11{opacity:0.5;mix-blend-mode:multiply;}</style><clipPath id="clip-path"><circle class="cls-1" cx="74.64" cy="74.64" r="74.64"/></clipPath></defs><title>Recurso 3</title><g class="cls-2"><g id="Capa_2" data-name="Capa 2"><g id="OBJECTS"><circle class="cls-1" cx="74.64" cy="74.64" r="74.64"/><g class="cls-3"><path class="cls-4" d="M107.86,41.89v24.8c0,.31,0,.62,0,.93v.15c0,.42,0,.83-.07,1.25,0,.14,0,.28,0,.42a.76.76,0,0,0,0,.15c0,.13,0,.27,0,.4s0,.44-.06.66a.34.34,0,0,1,0,.1.36.36,0,0,1,0,.1,2.72,2.72,0,0,1,0,.31l0,.26a.69.69,0,0,1,0,.13c-.06.49-.12,1-.2,1.46,0,.15,0,.29-.08.44s0,.28-.06.41,0,0,0,0c-.06.34-.12.67-.2,1a.65.65,0,0,1,0,.2,1.06,1.06,0,0,1,0,.19.36.36,0,0,1,0,.11s0,0,0,0c0,.17-.07.33-.11.49a.17.17,0,0,1,0,.1s0,0,0,.08a.14.14,0,0,1,0,.07c0,.15-.07.32-.11.47v0c0,.14-.08.3-.13.45s0,0,0,0c-.16.66-.35,1.32-.56,2,0,0,0,0,0,0-.09.31-.19.61-.3.92l0,.1c-.1.27-.2.55-.29.83a1.86,1.86,0,0,0-.1.25l-.3.78-.39.94c-.11.28-.23.56-.36.83,0,.05,0,.09,0,.14-.14.3-.27.59-.41.88s-.29.6-.44.9q-.45.9-.93,1.77l-.44.78a47.12,47.12,0,0,1-4.17,6.07c-.21.27-.42.53-.64.79s-.61.72-.92,1.07-.55.62-.84.93l-.59.62c-.59.61-1.2,1.19-1.8,1.75-.16.16-.33.31-.51.46s-.55.5-.84.74l-.67.57c-.59.48-1.18,1-1.77,1.38q-.37.28-.75.54c-.41.29-.83.57-1.24.84l-.71.44c-.83.51-1.67,1-2.5,1.39-.2.11-.41.21-.61.3l-.64.3-.81.34a2,2,0,0,1-.31.12c-.32.13-.65.26-1,.36s-.8.27-1.2.39l-.84.22h-.06l-.83.18-.22,0-.69.11a8.14,8.14,0,0,1-1,.1,1.84,1.84,0,0,1-.33,0c-.26,0-.52,0-.78,0h0c-.25,0-.5,0-.75,0a1.36,1.36,0,0,1-.29,0,5.83,5.83,0,0,1-.71-.06l-.16,0-.91-.14a8,8,0,0,1-.79-.17,24,24,0,0,1-4.29-1.44,31.48,31.48,0,0,1-3.74-2c-.63-.38-1.26-.79-1.88-1.22l-.93-.67q-1.45-1.06-2.88-2.31l-.78-.72-.78-.72c-.63-.61-1.25-1.25-1.86-1.91l-.71-.78c-.65-.74-1.28-1.5-1.89-2.29-.23-.28-.45-.58-.67-.87-.83-1.09-1.61-2.23-2.35-3.42l-.58-1L47,87.42a42.85,42.85,0,0,1-2.22-4.57c-.1-.22-.2-.45-.28-.68s-.25-.6-.35-.89-.32-.86-.47-1.3l-.42-1.31c-.13-.42-.25-.85-.37-1.28s-.24-.91-.35-1.37a0,0,0,0,1,0,0,.89.89,0,0,0,0-.14c-.15-.66-.29-1.32-.42-2-.16-.88-.29-1.77-.39-2.68,0-.28-.06-.57-.09-.86s-.05-.59-.07-.89c0-.55-.07-1.1-.08-1.66,0-.35,0-.69,0-1V41.89a33.55,33.55,0,0,1,.46-5.53A33.21,33.21,0,0,1,74.61,8.68h0A33.67,33.67,0,0,1,82,9.49a33.26,33.26,0,0,1,25.38,26.78A33.56,33.56,0,0,1,107.86,41.89Z"/><path class="cls-4" d="M117.92,159.29H31.37a43.1,43.1,0,0,1,2.31-14c.27-.79.56-1.57.88-2.35h0c.31-.77.66-1.53,1-2.28a42.85,42.85,0,0,1,5.27-8.4c.53-.65,1.06-1.28,1.6-1.88.27-.31.56-.61.84-.91s.57-.59.87-.88h0c.73-.73,1.48-1.43,2.27-2.1.32-.28.67-.56,1-.83h0l.07-.05a1.09,1.09,0,0,0,.11-.1c.41-.31.81-.64,1.22-.94s.8-.58,1.21-.87l0,0,.29-.2.53-.34h0l.45-.3c.44-.28.87-.54,1.31-.8s.89-.51,1.34-.76h0l.75-.44.29-.17c.33-.2.67-.41,1-.63s.62-.42.91-.65l.07,0,.25-.19a8.45,8.45,0,0,0,.69-.53h0c.36-.28.71-.57,1.05-.88a.25.25,0,0,0,.08-.07l1-.92.66-.67a27.34,27.34,0,0,0,2.47-3,27.72,27.72,0,0,0,3.47-6.6v0h0a27.23,27.23,0,0,0,1.6-9.24l6.3,0h0l6.48,0a27.37,27.37,0,0,0,1.56,9.14h0a27.45,27.45,0,0,0,8.69,12.2h0c.24.2.49.4.73.58l.16.12.91.64.19.13.27.18a3,3,0,0,0,.35.22l.27.17.4.24.62.36a.41.41,0,0,1,.15.07c.36.19.72.41,1.07.61s.7.42,1.05.64a5.29,5.29,0,0,1,.5.32l.37.24h0l.1.07c.09.06.17.13.26.18.5.33,1,.68,1.47,1l.25.17h0c.4.31.81.62,1.21.95l.07.05a.12.12,0,0,1,.05,0c.15.11.29.23.43.35q.89.74,1.74,1.53l1.16,1.1h0q.73.74,1.44,1.5c.47.52.93,1,1.37,1.57A43,43,0,0,1,117.92,159.29Z"/><path class="cls-5" d="M117.92,159.29H31.37a43.1,43.1,0,0,1,2.31-14c.27-.79.56-1.57.88-2.35h0c.31-.77.66-1.53,1-2.28a42.85,42.85,0,0,1,5.27-8.4c.53-.65,1.06-1.28,1.6-1.88.27-.31.56-.61.84-.91s.57-.59.87-.88c.73-.74,1.48-1.43,2.27-2.11.32-.28.67-.56,1-.83l.07-.06.11-.09,1.22-.94c.42-.31.83-.61,1.25-.89l.82-.55c.15-.11.3-.2.45-.3.44-.28.87-.55,1.31-.81s.89-.51,1.34-.76h0l.75-.44.29-.16c.34-.2.67-.42,1-.64s.62-.42.91-.65l.07,0,.25-.19.21-.17c.16-.11.31-.24.47-.37h0a23.51,23.51,0,0,0,6.77,4.81,22.59,22.59,0,0,0,6.85,2,3.4,3.4,0,0,0,.46.07c.57.06,1.15.1,1.73.12.27,0,.54,0,.82,0h.07c.27,0,.54,0,.8,0,.59,0,1.16,0,1.73-.11l.48-.07a22.79,22.79,0,0,0,6.84-2,23.52,23.52,0,0,0,6.83-4.83h0l.73.58.16.12c.3.22.6.44.91.65l.19.13.27.17a3,3,0,0,0,.35.22l.27.18.4.23.62.36a.41.41,0,0,1,.15.07c.36.19.72.41,1.07.61s.7.43,1.05.65a5.19,5.19,0,0,1,.5.31l.37.25h0l.1.08,0,0c.66.42,1.3.88,1.93,1.36h0c.4.31.81.62,1.21.95l.07.05.05,0h0c.15.11.29.23.43.35,1,.83,2,1.72,2.9,2.64q.73.74,1.44,1.5c.46.52.92,1,1.37,1.57A43,43,0,0,1,117.92,159.29Z"/><path class="cls-6" d="M69.1,51.65h0a10.06,10.06,0,1,0,.68,3.68h0A10.09,10.09,0,0,0,69.1,51.65ZM59.75,63.71a8.4,8.4,0,1,1,8.33-9.51h0a10.18,10.18,0,0,1,.07,1.11A8.42,8.42,0,0,1,59.75,63.71Z"/><path class="cls-6" d="M89.47,45.28a10,10,0,0,0-9.34,6.38s0,0,0,0a9.89,9.89,0,0,0-.68,3.63h0a10,10,0,1,0,10-10Zm0,18.43a8.42,8.42,0,0,1-8.4-8.39h0l.07-1.05a.28.28,0,0,1,0-.09,8.4,8.4,0,1,1,8.32,9.54Z"/><path class="cls-6" d="M81.15,54.17a.37.37,0,0,0,0,.09l-.06,1.05H79.44a4.83,4.83,0,0,0-9.66,0H68.15a8.17,8.17,0,0,0-.08-1.11,6.63,6.63,0,0,1,12.06-2.55l0,0A6.63,6.63,0,0,1,81.15,54.17Z"/><path class="cls-7" d="M50.89,123.12V168H47.42V125.65l.07-.05.11-.09h0c.41-.31.81-.64,1.22-.94s.8-.58,1.21-.87h0l.29-.2Z"/><polygon class="cls-7" points="98.41 123.13 98.41 159.28 98.41 168 101.87 168 101.87 159.28 101.87 125.66 98.41 123.13"/><path class="cls-8" d="M74.64,120.32l0,0h0l-.56.94h0l-2.11,3.53-.34.57-.69,1.16-.24.41a4.71,4.71,0,0,1-7.87.34l-5.76-8h0l.47-.35.47-.37h0c.36-.28.71-.57,1.05-.88a.25.25,0,0,0,.08-.07l1-.92.66-.67a27.34,27.34,0,0,0,2.47-3l11.37,7.23h0Z"/><path class="cls-8" d="M92.26,119.32l-5.76,8a4.72,4.72,0,0,1-7.88-.34h0l-4-6.61,0-.06L86.09,113a27.36,27.36,0,0,0,5.27,5.58C91.66,118.86,92,119.1,92.26,119.32Z"/><path class="cls-9" d="M107.85,66.71c0,.36,0,.72,0,1.08,0,.55,0,1.11-.08,1.65,0,.19,0,.38-.05.57a1.84,1.84,0,0,1,0,.33c0,.11,0,.2,0,.31l0,.2s0,.08,0,.11,0,.3-.05.46a.69.69,0,0,1,0,.13c-.06.49-.12,1-.2,1.46,0,.15,0,.29-.08.44s0,.28-.07.43c-.06.34-.12.67-.2,1a1.18,1.18,0,0,1,0,.2,1.06,1.06,0,0,1,0,.19.11.11,0,0,1,0,0s0,.05,0,.06,0,0,0,0c0,.17-.07.33-.11.49a.17.17,0,0,1,0,.1s0,0,0,.08a.14.14,0,0,1,0,.07.06.06,0,0,1,0,0,4.05,4.05,0,0,1-.12.47.87.87,0,0,1,0,.22c0,.06,0,.14,0,.2s0,0,0,0c-.17.66-.36,1.32-.56,2,0,0,0,0,0,0-.09.31-.19.61-.3.92l0,.1c-.1.27-.2.55-.29.83a1.86,1.86,0,0,0-.1.25l-.3.78-.39.94c-.11.28-.23.56-.36.83,0,.05,0,.09,0,.14-.14.3-.27.59-.41.88s-.29.6-.44.9q-.45.9-.93,1.77l-.44.78a47.12,47.12,0,0,1-4.17,6.07c-.21.27-.42.53-.64.79s-.61.72-.92,1.07-.55.62-.84.93l-.59.62c-.59.62-1.2,1.2-1.81,1.77-.16.16-.33.31-.5.46l-.84.74-.68.57c-.59.48-1.18.94-1.77,1.37q-.37.29-.75.54c-.41.3-.83.57-1.24.84-.23.16-.47.31-.7.44-.84.52-1.68,1-2.51,1.4-.2.11-.41.2-.61.3l-.62.29h0c-.27.13-.53.24-.8.35l-.32.12c-.32.13-.65.25-1,.36s-.81.27-1.21.38-.56.16-.84.22a.11.11,0,0,1-.06,0c-.28.06-.55.13-.83.18l-.22,0c-.23,0-.46.08-.69.1s-.65.09-1,.11a1.84,1.84,0,0,1-.33,0l-.78,0h0l-.76,0a1.43,1.43,0,0,1-.29,0l-.71-.06-.16,0-.91-.15c-.26,0-.52-.1-.79-.16a23.69,23.69,0,0,1-4.28-1.44,31.59,31.59,0,0,1-3.75-2c-.63-.37-1.25-.78-1.88-1.22l-.93-.67c-1-.71-1.93-1.49-2.88-2.32q-.39-.34-.78-.72l-.77-.71c-.64-.62-1.26-1.25-1.86-1.91-.24-.26-.48-.52-.71-.79-.66-.73-1.29-1.49-1.9-2.28L50.58,93q-1.24-1.65-2.34-3.42c-.2-.32-.4-.65-.58-1s-.45-.78-.67-1.17a42.85,42.85,0,0,1-2.22-4.57c-.1-.23-.2-.46-.28-.68s-.24-.6-.35-.89-.32-.87-.46-1.3-.29-.87-.43-1.31-.25-.85-.37-1.28-.25-.93-.35-1.4c0-.05,0-.1,0-.15-.15-.65-.29-1.31-.41-2-.17-.88-.3-1.78-.4-2.68,0-.29-.06-.57-.08-.86s-.06-.59-.08-.9c0-.54-.06-1.1-.08-1.65,0-.36,0-.72,0-1.08v0l5.3,10.41,9.11,4,10.78,1h0l8,.73h0l7.47.67h0L98.81,85Z"/><path class="cls-9" d="M74.68,72v8h0V92.36h0l0,0L42.54,76h0c0-.05,0-.1,0-.15-.15-.65-.29-1.31-.41-2-.17-.88-.3-1.78-.4-2.68,0-.29-.06-.57-.08-.86s-.06-.59-.08-.9c0-.54-.06-1.1-.08-1.65,0-.36,0-.72,0-1.08V57c0,.14,0,.28,0,.42a33.85,33.85,0,0,0,3.25,13.21h0c2.14,4.45,5,7.47,7.63,8l.5,0a27.39,27.39,0,0,0,3.19.18c4.16,0,7.86-3.34,10.18-4.69l0,0,.35-.22.1-.06A16.62,16.62,0,0,1,74.61,72Z"/><path class="cls-9" d="M107.86,57v9.75a39.35,39.35,0,0,1-.65,7.17c-.17.93-.37,1.85-.59,2.77L99.08,87.52,74.65,92.36h0l0-20.42h.07a16.47,16.47,0,0,1,7.93,1.84.28.28,0,0,1,.09.06l.36.22,0,0c2.34,1.36,6,4.7,10.18,4.7a27.26,27.26,0,0,0,3.19-.18l.51,0c2.63-.49,5.5-3.51,7.63-8h0a34,34,0,0,0,2.08-5.6,31.85,31.85,0,0,0,1.16-7.71C107.86,57.16,107.86,57.07,107.86,57Z"/><ellipse class="cls-4" cx="74.64" cy="82.5" rx="8.14" ry="2.52"/><path class="cls-9" d="M107.86,41.89v9.28c-2.72-4.81-4.15-9.59-4.18-13.53-5.8,4-16.65,6.77-29.07,6.79h-.1c-12.46,0-23.35-2.73-29.15-6.79A28.86,28.86,0,0,1,41.43,50.7V41.89a33.55,33.55,0,0,1,.46-5.53A33.21,33.21,0,0,1,74.61,8.68h0A33.67,33.67,0,0,1,82,9.49a33.26,33.26,0,0,1,25.38,26.78A33.56,33.56,0,0,1,107.86,41.89Z"/><path class="cls-10" d="M74.05,125.53l-7.15,2.4a1.63,1.63,0,0,1-2.15-1.54v-5.93a1.63,1.63,0,0,1,2.15-1.55l7.15,2.4Z"/><path class="cls-10" d="M75.23,125.53l7.15,2.4a1.63,1.63,0,0,0,2.15-1.54v-5.93a1.63,1.63,0,0,0-2.15-1.55l-7.15,2.4Z"/><rect class="cls-10" x="71.95" y="120.32" width="5.39" height="6.21" rx="2"/><path class="cls-11" d="M74.61,8.68V159.29H50.89V168H47.42v-8.71h-16a43.1,43.1,0,0,1,2.31-14c.27-.79.56-1.57.88-2.35h0c.31-.77.66-1.53,1-2.28a42.85,42.85,0,0,1,5.27-8.4c.53-.65,1.06-1.28,1.6-1.88.27-.31.56-.61.84-.91s.57-.59.87-.88h0c.73-.73,1.48-1.43,2.27-2.1.32-.28.67-.56,1-.83h0l.07-.05a1.09,1.09,0,0,0,.11-.1c.41-.31.81-.64,1.22-.94s.8-.58,1.21-.87l0,0,.29-.2.53-.35.45-.3c.44-.28.87-.54,1.31-.8s.89-.51,1.34-.76h0l.75-.44.29-.17c.33-.2.67-.41,1-.63s.62-.42.91-.65l.07,0h0l.47-.35.47-.37h0c.36-.28.71-.57,1.05-.88a.25.25,0,0,0,.08-.07l1-.92.66-.67a27.34,27.34,0,0,0,2.47-3,27.72,27.72,0,0,0,3.47-6.6,31.59,31.59,0,0,1-3.75-2c-.63-.37-1.25-.78-1.88-1.22l-.93-.67c-1-.71-1.93-1.49-2.88-2.32q-.39-.34-.78-.72l-.77-.71c-.64-.62-1.26-1.25-1.86-1.91-.24-.26-.48-.52-.71-.79-.66-.73-1.29-1.49-1.9-2.28L50.58,93q-1.24-1.65-2.34-3.42c-.2-.32-.4-.65-.58-1s-.45-.78-.67-1.17a42.85,42.85,0,0,1-2.22-4.57c-.1-.23-.2-.46-.28-.68s-.24-.6-.35-.89-.32-.87-.46-1.3-.29-.87-.43-1.31-.25-.85-.37-1.28-.25-.93-.35-1.4c0-.05,0-.1,0-.15-.15-.65-.29-1.31-.41-2-.17-.88-.3-1.78-.4-2.68,0-.29-.06-.57-.08-.86s-.06-.59-.08-.9c0-.54-.06-1.1-.08-1.65,0-.36,0-.72,0-1.08V57c0,.14,0,.28,0,.42V41.89a33.55,33.55,0,0,1,.46-5.53A33.21,33.21,0,0,1,74.61,8.68Z"/></g></g></g></g></svg>