<svg xmlns="http://www.w3.org/2000/svg" xmlns:xlink="http://www.w3.org/1999/xlink" viewBox="0 0 149.29 161.04"><defs><style>.cls-1{fill:#6bcbb8;}.cls-2{isolation:isolate;}.cls-3{clip-path:url(#clip-path);}.cls-4,.cls-8{fill:#f1dbcb;}.cls-5{fill:#f2dab2;}.cls-6{fill:#d3bfcc;}.cls-7{fill:#543e36;}.cls-8{opacity:0.5;mix-blend-mode:multiply;}</style><clipPath id="clip-path"><circle class="cls-1" cx="74.64" cy="74.64" r="74.64"/></clipPath></defs><title>Recurso 1</title><g class="cls-2"><g id="Capa_2" data-name="Capa 2"><g id="OBJECTS"><circle class="cls-1" cx="74.64" cy="74.64" r="74.64"/><g class="cls-3"><path class="cls-4" d="M117.89,161H31.35a43.1,43.1,0,0,1,12.77-30.69c.36-.37.73-.72,1.11-1.07.57-.52,1.15-1,1.75-1.53s1.2-1,1.82-1.43c.81-.61,1.66-1.18,2.52-1.74S53.06,123.49,54,123h0c.36-.2.7-.39,1-.61a23.53,23.53,0,0,0,2.93-2,27.43,27.43,0,0,0,8.73-12.17h0a27.33,27.33,0,0,0,1.6-9.23l6.35,0,6.44,0a27.28,27.28,0,0,0,10.24,21.35h0c.27.22.55.43.83.64s.77.56,1.16.82l.9.57,1,.6s.06,0,.08,0l.08,0c1,.55,2,1.14,2.92,1.76.32.21.64.42,1,.64s.82.59,1.22.9h0A43.15,43.15,0,0,1,117.89,161Z"/><path class="cls-5" d="M117.89,161H31.35a43.1,43.1,0,0,1,12.77-30.69c.36-.37.73-.72,1.11-1.07.57-.52,1.15-1,1.75-1.53s1.2-1,1.82-1.44c.81-.6,1.66-1.18,2.52-1.73S53.06,123.49,54,123h0c.36-.2.7-.39,1-.61a23.53,23.53,0,0,0,2.93-2,23.27,23.27,0,0,0,16.68,7h0a23.32,23.32,0,0,0,16.67-7c.27.22.55.43.83.64s.77.56,1.16.82l.9.57,1,.6s.06,0,.08,0l.08,0c1,.56,2,1.14,2.92,1.77.32.21.64.42,1,.64s.82.59,1.22.9h0A43.15,43.15,0,0,1,117.89,161Z"/><path class="cls-4" d="M107.83,41.35V68.43c0,.36,0,.72,0,1.07l0,.67c0,.39,0,.78-.08,1.17-1.27,17.34-13.75,31.75-25.07,36.8a20.31,20.31,0,0,1-8,1.92h0a20,20,0,0,1-7.93-1.88h0c-11.35-5-23.89-19.45-25.17-36.83,0-.39-.06-.78-.07-1.17l0-.67c0-.35,0-.71,0-1.07V41.35Z"/><path class="cls-6" d="M91.33,120.35a53.35,53.35,0,0,1-16.69,24,53.32,53.32,0,0,1-16.68-24l.13.05a24.8,24.8,0,0,0,33.09,0Z"/><ellipse class="cls-7" cx="74.62" cy="53.87" rx="29.31" ry="10.4" transform="translate(-4.52 6.89) rotate(-5.13)"/><path class="cls-7" d="M107.83,41.35v8.33H41.41V41.35h0c.41-9.56,5.82-27.43,33.2-27.43h0c27.35,0,32.76,17.87,33.16,27.43Z"/><path class="cls-7" d="M61.31,54.29l-.76,0a19.17,19.17,0,0,0-19,17.07c0-.39-.06-.78-.07-1.17l0-.67c0-.35,0-.71,0-1.07V41.35H55.55a19.3,19.3,0,0,1,5,8.33A19.47,19.47,0,0,1,61.31,54.29Z"/><path class="cls-7" d="M87.92,54.29l.76,0a19.15,19.15,0,0,1,19,17.07c.09-1,.12-1.93.12-2.91V41.35H93.68A19.1,19.1,0,0,0,87.92,54.29Z"/><path class="cls-8" d="M74.64,13.92V161H31.35a43.1,43.1,0,0,1,12.77-30.69c.36-.37.73-.72,1.11-1.07.57-.52,1.15-1,1.75-1.53s1.2-1,1.82-1.44c.81-.6,1.66-1.18,2.52-1.73S53.06,123.49,54,123h0c.36-.2.7-.39,1-.61a23.53,23.53,0,0,0,2.93-2,27.43,27.43,0,0,0,8.73-12.17h0c-11.35-5-23.89-19.45-25.17-36.83,0-.39-.06-.78-.07-1.17l0-.67c0-.35,0-.71,0-1.07V41.35h0c.41-9.56,5.82-27.43,33.2-27.43Z"/></g></g></g></g></svg>